<svg xmlns="http://www.w3.org/2000/svg" viewBox="0 0 960 960"><defs><style>.a{fill:none;stroke:#8d1b3d;stroke-linecap:round;stroke-linejoin:round;stroke-width:20px;fill-rule:evenodd;}</style></defs><title>sistersofislam-qa-maroon</title><path class="a" d="M615.86,468.94a448.41,448.41,0,0,0-49.76,341c29,113.1,62.63,124.49,152.34,55.45s148.77-187,148.77-306.76A389,389,0,0,0,796.1,333.8m-35.44-43.37A391.43,391.43,0,0,0,398.48,175.66m-52.43,14.51A391.91,391.91,0,0,0,122.19,393.63m-19.71,51.52A390.79,390.79,0,0,0,85.76,558.59c0,119.79,58.88,240.08,148.76,306.76s122.29,60.84,152.35-55.45,9.5-256.68-65.28-365c-28.66-41.55-73-90.73-122.3-120.15M817.16,431.56c-56.76,25.26-132.52,26.34-185.78,13.29a351.25,351.25,0,0,1-134.73-66.06m151.74,43c43.41-55.47,109.28-115.33,175.22-122.4,28.39-3,52.3,4.55,62.74,22.61,10.23,17.75,5.22,41.68-10.9,64.38a114.54,114.54,0,0,1-12.57,14.82M582.73,154.7A106.49,106.49,0,0,0,370,161.86c0,57.73,46.11,134,87.56,180.3M574.8,208.87c-18.23,57.71-63.39,120.43-98.32,152.66a352.36,352.36,0,0,1-126.84,75.2M146.26,302.29a138.07,138.07,0,0,0-16.9-2.94c-28.39-3-52.31,4.55-62.73,22.61-10.26,17.75-5.23,41.68,10.87,64.38,42.18,59.39,141.71,74,216.42,63.72"/></svg>